<?xml version="1.0" standalone="no"?>
<!DOCTYPE svg PUBLIC "-//W3C//DTD SVG 20010904//EN"
 "http://www.w3.org/TR/2001/REC-SVG-20010904/DTD/svg10.dtd">
<svg version="1.0" xmlns="http://www.w3.org/2000/svg"
 width="64.000000pt" height="64.000000pt" viewBox="0 0 64.000000 64.000000"
 preserveAspectRatio="xMidYMid meet">

<g transform="translate(0.000000,64.000000) scale(0.100000,-0.100000)"
fill="#000000" stroke="none">
<path d="M223 610 c-19 -8 -23 -17 -23 -50 0 -29 4 -40 15 -40 10 0 15 11 15
35 l0 35 90 0 90 0 0 -35 c0 -24 5 -35 15 -35 11 0 15 11 15 40 0 34 -4 42
-26 50 -31 12 -161 12 -191 0z"/>
<path d="M30 470 c-29 -29 -32 -51 -28 -233 3 -186 5 -192 74 -207 51 -12 437
-12 488 0 69 15 71 21 74 207 4 182 1 204 -28 233 -19 19 -34 20 -290 20 -256
0 -271 -1 -290 -20z m348 -117 c3 -28 7 -32 35 -35 31 -3 32 -5 35 -52 3 -52
-6 -66 -45 -66 -17 0 -22 -7 -25 -32 -3 -33 -3 -33 -58 -33 -55 0 -55 0 -58
33 -3 25 -8 32 -25 32 -39 0 -48 14 -45 66 3 47 4 49 36 52 28 3 32 7 32 31 0
38 7 42 65 39 48 -3 50 -4 53 -35z"/>
<path d="M288 333 c-3 -36 -5 -38 -41 -41 -35 -3 -38 -6 -35 -30 2 -22 9 -28
38 -32 31 -4 35 -9 38 -37 3 -29 7 -33 32 -33 25 0 29 4 32 33 3 28 7 33 38
37 29 4 36 10 38 32 3 24 0 27 -35 30 -36 3 -38 5 -41 41 -3 33 -6 37 -32 37
-26 0 -29 -4 -32 -37z"/>
</g>
</svg>
